<?xml version="1.0" encoding="UTF-8" standalone="no"?>
<svg
   version="1.1"
   width="3.0650001in"
   height="2.7920001in"
   viewBox="0 0 220.68 201.02151"
   id="svg4"
   sodipodi:docname="Label Sega Genesis.svg"
   inkscape:version="1.4.4 (dcaf3e7, 2026-05-05)"
   xmlns:inkscape="http://www.inkscape.org/namespaces/inkscape"
   xmlns:sodipodi="http://sodipodi.sourceforge.net/DTD/sodipodi-0.dtd"
   xmlns="http://www.w3.org/2000/svg"
   xmlns:svg="http://www.w3.org/2000/svg">
  <defs
     id="defs4" />
  <sodipodi:namedview
     id="namedview4"
     pagecolor="#505050"
     bordercolor="#eeeeee"
     borderopacity="1"
     inkscape:showpageshadow="0"
     inkscape:pageopacity="0"
     inkscape:pagecheckerboard="true"
     inkscape:deskcolor="#505050"
     inkscape:document-units="in"
     showguides="true"
     borderlayer="true"
     showborder="true"
     shape-rendering="crispEdges"
     inkscape:clip-to-page="false"
     inkscape:zoom="3.0633964"
     inkscape:cx="127.63611"
     inkscape:cy="129.10507"
     inkscape:window-width="2560"
     inkscape:window-height="1369"
     inkscape:window-x="-8"
     inkscape:window-y="-8"
     inkscape:window-maximized="1"
     inkscape:current-layer="layer1" />
  <g
     inkscape:groupmode="layer"
     id="layer1"
     inkscape:label="Layer 1"
     sodipodi:insensitive="true">
    <path
       d="m 0,-0.0242 v 201.024 H 220.68 V -0.0242 Z"
       style="display:inline;fill:#ffffcc;fill-rule:evenodd"
       id="path1"
       sodipodi:insensitive="true" />
    <path
       d="M 4.532,26.3357 H 216.1392"
       style="fill:#003399;fill-rule:evenodd;stroke:#003399;stroke-width:0.7498;stroke-linecap:butt;stroke-linejoin:miter;stroke-dasharray:0.7498, 0.7498, 0.7498, 0.7498"
       id="path2"
       sodipodi:insensitive="true" />
    <path
       d="m 207.2032,4.5347566 c 4.9573,0 9.0128,4.0555 9.0128,9.0127004 V 187.54596 c 0,4.9572 -4.0555,9.0128 -9.0128,9.0128 H 13.5488 c -4.9572998,0 -9.0127998,-4.0556 -9.0127998,-9.0128 V 13.547457 c 0,-4.9572004 4.0555,-9.0127004 9.0127998,-9.0127004 z"
       style="fill:none;fill-opacity:1;stroke:#ff0000;stroke-width:0.7498;stroke-linecap:butt;stroke-linejoin:miter;stroke-dasharray:1.4995, 0.7498, 1.4995, 0.7498;stroke-opacity:1"
       id="path3"
       sodipodi:nodetypes="sssssssss"
       sodipodi:insensitive="true" />
    <path
       d="m 13.5488,9.0707568 c -1.2263,0 -2.3451,0.5051 -3.1584,1.3183002 -0.8132997,0.8133 -1.3183997,1.9321 -1.3183997,3.1584 V 187.54596 c 0,1.2263 0.5051,2.3451 1.3183997,3.1584 0.8133,0.8132 1.9321,1.3184 3.1584,1.3184 h 193.6544 c 1.2263,0 2.3451,-0.5052 3.1584,-1.3184 0.8133,-0.8133 1.3184,-1.9321 1.3184,-3.1584 V 13.547457 c 0,-1.2263 -0.5051,-2.3451 -1.3184,-3.1584 -0.8133,-0.8132002 -1.9321,-1.3183002 -3.1584,-1.3183002 z"
       style="fill:none;fill-opacity:1;stroke:#009933;stroke-width:0.7498;stroke-linecap:butt;stroke-linejoin:miter;stroke-dasharray:1.4995, 0.7498, 1.4995, 0.7498;stroke-opacity:1"
       id="path4"
       sodipodi:nodetypes="scsscsscsscss"
       sodipodi:insensitive="true" />
  </g>
  <inkscape:templateinfo>
    <inkscape:name>Label Sega Genesis</inkscape:name>
    <inkscape:author>Vadim Iuhimciuc</inkscape:author>
    <inkscape:shortdesc>Label for Cartridge Sega Genesis</inkscape:shortdesc>
    <inkscape:date>2023-08-22</inkscape:date>
    <inkscape:keywords>Label</inkscape:keywords>
  </inkscape:templateinfo>
</svg>
